<svg width="34" height="34" viewBox="0 0 34 34" fill="none" xmlns="http://www.w3.org/2000/svg">
<path d="M2.8335 12.75V9.91671C2.8335 5.66671 5.66683 2.83337 9.91683 2.83337H24.0835C28.3335 2.83337 31.1668 5.66671 31.1668 9.91671V12.75" stroke="#FF4D80" stroke-width="2.125" stroke-miterlimit="10" stroke-linecap="round" stroke-linejoin="round"/>
<path d="M2.8335 21.25V24.0833C2.8335 28.3333 5.66683 31.1667 9.91683 31.1667H24.0835C28.3335 31.1667 31.1668 28.3333 31.1668 24.0833V21.25" stroke="#FF4D80" stroke-width="2.125" stroke-miterlimit="10" stroke-linecap="round" stroke-linejoin="round"/>
<path d="M9.4917 13.1183L17 17.4675L24.4517 13.1466" stroke="#FF4D80" stroke-width="2.125" stroke-linecap="round" stroke-linejoin="round"/>
<path d="M17 25.1742V17.4534" stroke="#FF4D80" stroke-width="2.125" stroke-linecap="round" stroke-linejoin="round"/>
<path d="M15.2436 8.91096L10.7103 11.4327C9.69032 11.9993 8.84033 13.4302 8.84033 14.606V19.4085C8.84033 20.5843 9.67615 22.0152 10.7103 22.5818L15.2436 25.1034C16.207 25.6418 17.7937 25.6418 18.7712 25.1034L23.3045 22.5818C24.3245 22.0152 25.1745 20.5843 25.1745 19.4085V14.606C25.1745 13.4302 24.3387 11.9993 23.3045 11.4327L18.7712 8.91096C17.7937 8.35846 16.207 8.35846 15.2436 8.91096Z" stroke="#FF4D80" stroke-width="2.125" stroke-linecap="round" stroke-linejoin="round"/>
</svg>
