<svg width="34" height="34" viewBox="0 0 34 34" fill="none" xmlns="http://www.w3.org/2000/svg">
<path d="M11.3335 17.2832H21.2502" stroke="#3CE3B3" stroke-width="2.125" stroke-miterlimit="10" stroke-linecap="round" stroke-linejoin="round"/>
<path d="M11.3335 22.95H17.5385" stroke="#3CE3B3" stroke-width="2.125" stroke-miterlimit="10" stroke-linecap="round" stroke-linejoin="round"/>
<path d="M14.1668 8.50004H19.8335C22.6668 8.50004 22.6668 7.08337 22.6668 5.66671C22.6668 2.83337 21.2502 2.83337 19.8335 2.83337H14.1668C12.7502 2.83337 11.3335 2.83337 11.3335 5.66671C11.3335 8.50004 12.7502 8.50004 14.1668 8.50004Z" stroke="#3CE3B3" stroke-width="2.125" stroke-miterlimit="10" stroke-linecap="round" stroke-linejoin="round"/>
<path d="M22.6667 5.69507C27.3842 5.95007 29.75 7.69257 29.75 14.1667V22.6667C29.75 28.3334 28.3333 31.1667 21.25 31.1667H12.75C5.66667 31.1667 4.25 28.3334 4.25 22.6667V14.1667C4.25 7.70674 6.61583 5.95007 11.3333 5.69507" stroke="#3CE3B3" stroke-width="2.125" stroke-miterlimit="10" stroke-linecap="round" stroke-linejoin="round"/>
</svg>
