<svg width="34" height="34" viewBox="0 0 34 34" fill="none" xmlns="http://www.w3.org/2000/svg">
<path d="M12.0418 26.9167H11.3335C5.66683 26.9167 2.8335 25.5 2.8335 18.4167V11.3334C2.8335 5.66671 5.66683 2.83337 11.3335 2.83337H22.6668C28.3335 2.83337 31.1668 5.66671 31.1668 11.3334V18.4167C31.1668 24.0834 28.3335 26.9167 22.6668 26.9167H21.9585C21.5193 26.9167 21.0943 27.1292 20.8252 27.4834L18.7002 30.3167C17.7652 31.5634 16.2352 31.5634 15.3002 30.3167L13.1752 27.4834C12.9485 27.1717 12.4243 26.9167 12.0418 26.9167Z" stroke="#3CE3B3" stroke-width="2.125" stroke-miterlimit="10" stroke-linecap="round" stroke-linejoin="round"/>
<path d="M9.9165 11.3334H24.0832" stroke="#3CE3B3" stroke-width="2.125" stroke-linecap="round" stroke-linejoin="round"/>
<path d="M9.9165 18.4166H18.4165" stroke="#3CE3B3" stroke-width="2.125" stroke-linecap="round" stroke-linejoin="round"/>
</svg>
