<svg width="116" height="29" viewBox="0 0 116 29" fill="none" xmlns="http://www.w3.org/2000/svg">
<path d="M15.9945 1.20417C16.2056 0.801557 16.363 0.369668 16.6338 0C17.0987 0.784477 17.4586 1.62385 17.8831 2.42907C17.9954 2.67674 18.1137 2.92196 18.2406 3.16231C18.3541 3.40875 18.4736 3.65276 18.6017 3.89188C19.4131 5.617 20.3208 7.29453 21.1333 9.01843C21.2663 9.25634 21.3834 9.50278 21.4895 9.75289C22.3619 11.4987 23.233 13.2446 24.098 14.9929C24.2078 15.1991 24.2993 15.4138 24.3981 15.6249C24.4579 15.7383 24.5176 15.8518 24.5786 15.9653C25.501 17.8819 26.4904 19.7644 27.403 21.686C27.4847 21.8482 27.5628 22.0117 27.6446 22.1752C28.4449 23.7002 29.205 25.329 30.5494 26.4599C31.2863 27.0834 32.2367 27.3371 33.1164 27.6665C33.1249 27.7361 33.1444 27.8764 33.1542 27.9459C33.1249 28.0142 33.0676 28.1497 33.0395 28.218C27.5189 28.2058 21.9983 28.2314 16.4789 28.2058L16.4716 27.6397C17.2939 27.4359 18.154 27.1029 18.6322 26.3587C18.8994 25.7657 18.8823 25.1216 18.7262 24.5042C18.6798 24.3444 18.6432 24.1821 18.6042 24.0223C18.4932 23.6929 18.3797 23.3635 18.2674 23.0341C18.2028 22.8791 18.1418 22.7242 18.0783 22.5705C18.0027 22.3655 17.9185 22.1654 17.827 21.9666C17.7587 21.7982 17.6892 21.6298 17.6208 21.4615C14.5305 21.4688 11.439 21.4529 8.34864 21.4688C8.24006 22.6095 8.27178 23.7698 8.47918 24.8983C8.67682 25.9744 9.28074 26.9992 10.2165 27.5909C10.2226 27.7983 10.2238 28.0081 10.2238 28.2168C6.81995 28.2094 3.41607 28.2253 0.0122003 28.2094C0.00854023 28.0179 0.0048801 27.8264 0 27.636C1.30665 27.2163 2.37051 26.2952 3.28553 25.3046C4.54338 23.8808 5.57796 22.2704 6.4881 20.6075C6.67354 20.2903 6.83215 19.9572 7.02003 19.6412C7.07859 19.5155 7.13715 19.3899 7.19815 19.2666C7.95945 17.7709 8.70245 16.2654 9.4186 14.7489C9.5101 14.5903 9.58696 14.4244 9.65407 14.2548C9.71263 14.1401 9.77241 14.0279 9.83463 13.9156C9.93345 13.7046 10.0237 13.4886 10.1299 13.2812C10.7509 11.9782 11.4085 10.6935 12.0343 9.39298C12.1393 9.1868 12.232 8.97451 12.3296 8.76589C12.4565 8.5231 12.5711 8.273 12.6822 8.02167C13.6924 5.96593 14.7001 3.90652 15.6932 1.84224C15.7945 1.62995 15.8945 1.41645 15.9945 1.20417ZM12.2247 10.5386C12.1661 10.6874 12.1014 10.8338 12.038 10.9815C11.212 12.5687 10.4251 14.1791 9.75777 15.8408C9.68335 16.0458 9.60892 16.2495 9.52962 16.452C9.47106 16.6204 9.41006 16.7888 9.35272 16.9584C8.92815 18.1906 8.59874 19.4606 8.43404 20.7551H17.2353C16.718 19.6022 16.1507 18.4712 15.6139 17.3256C15.5163 17.1157 15.4309 16.8998 15.3247 16.6948C14.4597 14.8648 13.5667 13.0494 12.7054 11.2194C12.6749 11.1596 12.6151 11.04 12.5846 10.979C12.5248 10.8253 12.4601 10.6716 12.3991 10.5178C12.3552 10.5227 12.2686 10.5337 12.2247 10.5386ZM95.8282 0.630753C96.2076 0.49289 96.5785 0.326967 96.9762 0.244005C96.9799 1.9191 96.9604 3.59298 96.9872 5.26807C98.6977 3.50147 100.57 1.76538 102.898 0.863778C103.051 0.803997 103.206 0.749096 103.362 0.689315C103.486 0.656374 103.612 0.622213 103.739 0.586833C103.896 0.542912 104.057 0.500211 104.217 0.45263C104.422 0.423349 104.633 0.396508 104.836 0.339167C105.973 0.181784 107.122 0.162263 108.258 0.344047C108.419 0.390408 108.582 0.424569 108.751 0.45873C108.908 0.517291 109.068 0.570972 109.229 0.627093C109.428 0.696635 109.623 0.783257 109.813 0.877199C110.645 1.32617 111.293 2.0655 111.71 2.90732C111.781 3.11229 111.865 3.31237 111.956 3.51123C111.991 3.63446 112.029 3.75646 112.069 3.87968C112.103 4.00413 112.14 4.12979 112.179 4.25423C112.358 5.06677 112.484 5.8915 112.496 6.726C112.594 7.11519 112.547 7.51902 112.556 7.91553C112.56 13.1202 112.55 18.326 112.562 23.5306C112.578 24.065 112.544 24.6079 112.66 25.1338C112.717 25.8072 112.88 26.5563 113.443 26.9931C114.102 27.4884 114.961 27.5311 115.75 27.6263C115.743 27.8142 115.744 28.0033 115.722 28.1911C114.253 28.2497 112.778 28.1985 111.308 28.2155C108.035 28.2119 104.761 28.2229 101.489 28.2107C101.317 28.0704 101.41 27.8264 101.379 27.6372C102.197 27.5787 103.14 27.2956 103.475 26.4636C103.53 26.3038 103.585 26.1427 103.646 25.9841C103.67 25.7755 103.694 25.5656 103.755 25.3656C103.852 23.9869 103.813 22.6046 103.823 21.2248C103.814 17.2768 103.845 13.3288 103.803 9.38078C103.769 8.77931 103.828 8.16929 103.712 7.57392C103.69 7.3226 103.669 7.07127 103.64 6.81995C103.592 6.65402 103.561 6.48322 103.533 6.31363C103.473 6.15869 103.419 6.00253 103.367 5.84636C102.979 4.89596 101.926 4.34329 100.933 4.32255C99.4114 4.30669 98.0266 5.16437 96.9945 6.21359C96.9482 11.2133 96.9884 16.219 96.975 21.2199C96.9738 22.4046 96.9725 23.588 97.0116 24.7714C97.0811 25.0898 97.0994 25.4156 97.1238 25.7401C97.1873 25.939 97.2422 26.1403 97.3068 26.3404C97.5813 27.2334 98.5903 27.4823 99.4114 27.5604C99.4114 27.7458 99.4126 27.9313 99.4163 28.1167C94.2824 28.1228 89.1485 28.1179 84.0146 28.1192C84.0146 27.9325 84.0147 27.7458 84.0183 27.5592C85.2042 27.475 86.6316 27.5152 87.4661 26.5124C88.286 25.3741 88.1408 23.8869 88.2689 22.5656C88.3079 19.1507 88.2786 15.7359 88.2872 12.321C88.303 11.2743 88.192 10.2336 88.1749 9.18801L88.1066 9.19778C88.059 7.96189 87.6723 6.62474 86.6633 5.8305C85.8386 5.13997 84.732 5.00699 83.7096 4.84472C83.6926 4.66782 83.6767 4.4897 83.6609 4.31279C84.7101 4.08099 85.7495 3.79794 86.7975 3.5576C86.9915 3.49537 87.1892 3.44169 87.3819 3.37215C87.4502 3.35995 87.5844 3.33433 87.6516 3.32213C87.8431 3.25869 88.0395 3.20379 88.2335 3.14401C90.2197 2.58279 92.1705 1.90446 94.1201 1.22857C94.2373 1.18465 94.3556 1.14194 94.4764 1.10168C94.8058 0.987001 95.134 0.868658 95.4634 0.753976C95.5829 0.711275 95.7049 0.669794 95.8282 0.630753ZM65.807 0.624653C67.2661 0.294026 68.7692 0.409929 70.2503 0.445309L70.2393 0.524611C70.5041 0.533151 70.7701 0.549012 71.0348 0.577072C71.2361 0.641734 71.4472 0.669794 71.6582 0.699075C71.8608 0.753976 72.0669 0.796677 72.2719 0.852798C72.4293 0.895499 72.5928 0.93454 72.7514 0.983341C72.8173 0.999201 72.9478 1.03214 73.0137 1.048C73.1345 1.08948 73.2565 1.12974 73.3797 1.17C73.531 1.22979 73.6871 1.28713 73.8409 1.34569C75.6465 2.01914 77.2874 3.10741 78.6734 4.44089C80.3924 6.17211 81.6698 8.3584 82.27 10.7265C82.3115 10.8912 82.3469 11.0559 82.3896 11.2206C82.5006 11.805 82.6153 12.3942 82.5946 12.9933L82.6738 12.986C82.6555 13.6948 82.7592 14.4183 82.6116 15.1161C82.5811 15.4797 82.5921 15.8506 82.4969 16.2056C82.4652 16.4106 82.4384 16.618 82.3932 16.8217C81.6515 20.3025 79.5006 23.3952 76.6786 25.5229C75.3268 26.527 73.8335 27.3408 72.2499 27.913C72.1292 27.9508 72.0096 27.9886 71.89 28.024C71.6082 28.1167 71.3252 28.2046 71.0397 28.279C70.6383 28.3924 70.221 28.44 69.8221 28.5608C69.583 28.5889 69.3438 28.612 69.1072 28.6425C68.6618 28.7463 68.2007 28.7145 67.7493 28.7463C67.5894 28.7621 67.4308 28.7829 67.2735 28.8024C66.6317 28.667 65.9595 28.7975 65.3202 28.6364C65.1128 28.6108 64.9054 28.5901 64.6992 28.5669C64.5028 28.49 64.2929 28.4693 64.088 28.4388C63.9221 28.3888 63.7537 28.3534 63.5878 28.3205C61.3954 27.73 59.3457 26.6161 57.6816 25.0691C56.0761 23.5758 54.8389 21.6884 54.096 19.6266C54.0533 19.507 54.0118 19.3887 53.9715 19.2691C53.9313 19.1422 53.8898 19.0153 53.8495 18.8897C53.8044 18.7152 53.7751 18.5359 53.7482 18.3589L53.6799 18.3516C53.6628 18.2064 53.6458 18.06 53.6275 17.9149C53.4823 17.3732 53.4042 16.8095 53.4042 16.2483L53.3261 16.2959C53.3042 15.4748 53.3078 14.6525 53.3212 13.8314L53.4005 13.8522C53.4066 13.5252 53.4262 13.197 53.4396 12.8701L53.5177 12.8615C53.5262 12.598 53.5372 12.3308 53.6177 12.0783C53.6506 11.9136 53.6824 11.7488 53.7348 11.589C53.7763 11.4292 53.8178 11.2682 53.8617 11.1083C53.8971 10.9815 53.9337 10.8558 53.9715 10.7301C54.013 10.6106 54.0569 10.4898 54.1008 10.3702C55.5978 6.18553 59.1066 2.86828 63.2523 1.34691C63.406 1.28591 63.5585 1.22613 63.7134 1.1639C63.922 1.10168 64.1295 1.0358 64.3405 0.976021C64.465 0.93698 64.5906 0.899159 64.7175 0.862558C65.075 0.757636 65.4398 0.680774 65.807 0.624653ZM59.9533 4.87766C59.9069 5.03871 59.863 5.20097 59.8167 5.36201C59.6776 6.16723 59.7593 6.99563 59.9545 7.78376C60.4206 9.73459 61.2221 11.5817 61.992 13.4276C62.1591 13.7875 62.3202 14.1511 62.4714 14.5183C63.2803 16.2959 64.1807 18.0283 65.0933 19.7534C65.1775 19.912 65.2616 20.0706 65.347 20.2292C65.7277 20.9295 66.1279 21.6189 66.5536 22.2923C67.5382 23.7868 68.5813 25.3351 70.1247 26.3062C71.3117 27.076 72.9039 27.0077 74.119 26.3416C75.1365 25.7474 75.9771 24.7519 76.1894 23.5709C76.3492 22.5802 76.1382 21.5835 75.871 20.6306C75.4427 19.1154 74.8352 17.6599 74.2471 16.2019C74.091 15.8908 73.9726 15.5639 73.8238 15.2503C73.1711 13.7485 72.4159 12.2942 71.6802 10.8326C71.5448 10.5984 71.4252 10.3544 71.3093 10.1104C71.1739 9.86635 71.0446 9.62112 70.9116 9.37712C70.2991 8.19613 69.6183 7.05175 68.8766 5.94763C67.9006 4.5202 66.7915 3.0403 65.1677 2.31805C63.1095 1.53601 60.6975 2.87926 59.9533 4.87766ZM22.4192 0.803997C27.9959 0.810097 33.5739 0.817417 39.1519 0.799117L39.1458 0.901599L39.2507 0.904039L39.2458 1.38717C38.5784 1.57505 37.8745 1.79222 37.384 2.31073C36.9082 2.77922 36.7789 3.50757 36.9216 4.14321C37.201 5.7878 38.0123 7.27013 38.6931 8.77443C38.7797 8.93425 38.8773 9.09285 38.9262 9.27098C38.9859 9.38688 39.0469 9.50156 39.1067 9.61624C39.951 11.4133 40.8367 13.1921 41.6907 14.9844C41.72 15.0478 41.7786 15.1735 41.8078 15.2357C41.8701 15.4016 41.9518 15.5578 42.036 15.7139C42.4484 16.6277 42.9132 17.5159 43.3353 18.4248C43.7672 17.5318 44.1771 16.629 44.6054 15.7359C44.6627 15.6041 44.7225 15.4736 44.7774 15.3406C44.9689 14.9526 45.1471 14.5561 45.3264 14.1633C46.1646 12.2015 46.91 10.164 47.1162 8.02777C47.2723 6.91145 47.2736 5.75608 47.1174 4.63976C47.0357 3.43559 46.4488 2.26437 45.4643 1.54943C45.2056 1.42499 45.2715 1.11998 45.2434 0.888179L45.3764 0.92844L45.352 0.802777C48.7364 0.814977 52.1207 0.808877 55.5051 0.805217C55.5087 1.00408 55.5258 1.20417 55.5014 1.40181C54.7328 1.6629 54.0215 2.0777 53.4066 2.60842C52.1744 3.6186 51.2045 4.9045 50.3346 6.22945C49.4074 7.66908 48.5717 9.16727 47.8201 10.7045C47.7189 10.9168 47.6237 11.1315 47.5249 11.3438C46.7453 12.9713 45.9352 14.583 45.1483 16.2068C45.0446 16.4142 44.9543 16.6277 44.8494 16.8351C44.7664 16.9962 44.6908 17.1609 44.6163 17.3268C43.4976 19.6339 42.3605 21.9324 41.254 24.2456C40.6305 25.5632 39.9619 26.8589 39.3361 28.1753C39.2519 28.3375 39.1726 28.5035 39.1214 28.6791C39.0335 28.789 38.942 28.8963 38.8468 29.0012C38.6699 28.6938 38.5211 28.3717 38.3759 28.0484C37.6695 26.6258 36.9582 25.2057 36.2567 23.7807C36.1957 23.6526 36.1335 23.5245 36.0725 23.3964C35.2563 21.6847 34.3828 20.0023 33.5629 18.2931C33.4556 18.0857 33.3555 17.8746 33.2567 17.6648C33.1176 17.3878 32.9846 17.1084 32.8419 16.8351C32.0781 15.1881 31.2058 13.5923 30.4433 11.9453C30.3835 11.8257 30.3237 11.7074 30.2627 11.5902C30.2322 11.5292 30.1725 11.4048 30.1432 11.3438C30.0883 11.2181 30.0322 11.0937 29.9748 10.9705C29.8772 10.8094 29.7906 10.6435 29.7272 10.4666C29.6674 10.3544 29.6088 10.2421 29.549 10.1311C28.85 8.68902 28.1265 7.25793 27.4091 5.82562C27.3457 5.71338 27.2822 5.60236 27.22 5.49012C26.5246 4.15785 25.6596 2.80728 24.3054 2.06794C23.7027 1.74464 23.0402 1.56041 22.3814 1.38961C22.3936 1.19441 22.4046 0.999201 22.4192 0.803997Z" fill="#5E5E5E"/>
</svg>
