<svg width="34" height="34" viewBox="0 0 34 34" fill="none" xmlns="http://www.w3.org/2000/svg">
<path d="M8.5 14.1667V11.3334C8.5 6.64421 9.91667 2.83337 17 2.83337C24.0833 2.83337 25.5 6.64421 25.5 11.3334V14.1667" stroke="#3F8CFF" stroke-width="2.125" stroke-linecap="round" stroke-linejoin="round"/>
<path d="M17.0002 26.2083C18.9562 26.2083 20.5418 24.6227 20.5418 22.6667C20.5418 20.7107 18.9562 19.125 17.0002 19.125C15.0442 19.125 13.4585 20.7107 13.4585 22.6667C13.4585 24.6227 15.0442 26.2083 17.0002 26.2083Z" stroke="#3F8CFF" stroke-width="2.125" stroke-linecap="round" stroke-linejoin="round"/>
<path d="M24.0835 31.1666H9.91683C4.25016 31.1666 2.8335 29.75 2.8335 24.0833V21.25C2.8335 15.5833 4.25016 14.1666 9.91683 14.1666H24.0835C29.7502 14.1666 31.1668 15.5833 31.1668 21.25V24.0833C31.1668 29.75 29.7502 31.1666 24.0835 31.1666Z" stroke="#3F8CFF" stroke-width="2.125" stroke-linecap="round" stroke-linejoin="round"/>
</svg>
