<svg width="34" height="34" viewBox="0 0 34 34" fill="none" xmlns="http://www.w3.org/2000/svg">
<path d="M31.1668 18.4167V12.75C31.1668 5.66671 28.3335 2.83337 21.2502 2.83337H12.7502C5.66683 2.83337 2.8335 5.66671 2.8335 12.75V21.25C2.8335 28.3334 5.66683 31.1667 12.7502 31.1667H18.4168" stroke="#3F8CFF" stroke-width="2.125" stroke-linecap="round" stroke-linejoin="round"/>
<path d="M10.3843 20.5275L13.756 16.15C14.2376 15.5267 15.1301 15.4134 15.7535 15.895L18.346 17.935C18.9693 18.4167 19.8618 18.3034 20.3434 17.6942L23.616 13.4725" stroke="#3F8CFF" stroke-width="2.125" stroke-linecap="round" stroke-linejoin="round"/>
<path d="M27.5971 22.4115L27.9937 23.219C28.1921 23.6157 28.6879 23.984 29.127 24.069L29.6654 24.154C31.2804 24.4232 31.6629 25.6132 30.5012 26.789L30.0054 27.2849C29.6795 27.6249 29.4954 28.2765 29.5946 28.7299L29.6654 29.0274C30.1045 30.9824 29.0704 31.7332 27.3704 30.7132L27.002 30.5007C26.5629 30.2457 25.8545 30.2457 25.4154 30.5007L25.047 30.7132C23.3329 31.7474 22.2987 30.9824 22.752 29.0274L22.8229 28.7299C22.922 28.2765 22.7379 27.6249 22.4121 27.2849L21.9162 26.789C20.7545 25.6132 21.137 24.4232 22.752 24.154L23.2904 24.069C23.7154 23.9982 24.2254 23.6157 24.4237 23.219L24.8204 22.4115C25.5854 20.8674 26.8321 20.8674 27.5971 22.4115Z" stroke="#3F8CFF" stroke-width="2.125" stroke-linecap="round" stroke-linejoin="round"/>
</svg>
