<svg width="34" height="34" viewBox="0 0 34 34" fill="none" xmlns="http://www.w3.org/2000/svg">
<path d="M11.8716 17L15.2857 20.4283L22.1282 13.5717" stroke="#FF4D80" stroke-width="2.125" stroke-linecap="round" stroke-linejoin="round"/>
<path d="M15.2291 3.47075C16.2066 2.63491 17.8074 2.63491 18.7991 3.47075L21.0374 5.39741C21.4624 5.76575 22.2557 6.06325 22.8224 6.06325H25.2307C26.7324 6.06325 27.9649 7.29575 27.9649 8.79741V11.2057C27.9649 11.7582 28.2624 12.5657 28.6307 12.9907L30.5574 15.2291C31.3932 16.2066 31.3932 17.8074 30.5574 18.7991L28.6307 21.0374C28.2624 21.4624 27.9649 22.2557 27.9649 22.8224V25.2307C27.9649 26.7324 26.7324 27.9649 25.2307 27.9649H22.8224C22.2699 27.9649 21.4624 28.2624 21.0374 28.6307L18.7991 30.5574C17.8216 31.3932 16.2207 31.3932 15.2291 30.5574L12.9907 28.6307C12.5657 28.2624 11.7724 27.9649 11.2057 27.9649H8.75491C7.25325 27.9649 6.02075 26.7324 6.02075 25.2307V22.8082C6.02075 22.2557 5.72325 21.4624 5.36908 21.0374L3.45658 18.7849C2.63492 17.8074 2.63492 16.2207 3.45658 15.2432L5.36908 12.9907C5.72325 12.5657 6.02075 11.7724 6.02075 11.2199V8.78325C6.02075 7.28158 7.25325 6.04908 8.75491 6.04908H11.2057C11.7582 6.04908 12.5657 5.75158 12.9907 5.38325L15.2291 3.47075Z" stroke="#FF4D80" stroke-width="2.125" stroke-linecap="round" stroke-linejoin="round"/>
</svg>
