<svg width="196" height="30" viewBox="0 0 196 30" fill="none" xmlns="http://www.w3.org/2000/svg">
<path d="M84.0724 27.7601L75.533 3.82165C75.393 3.54167 75.253 3.12169 75.253 2.70172C75.253 1.72178 76.0929 0.601853 77.4928 0.601853C78.4728 0.601853 79.3127 1.30181 79.7327 2.42174L86.7322 23.0004L93.8718 2.28175C94.1518 1.30181 94.8517 0.461862 95.9716 0.461862H96.2516C97.3716 0.461862 98.2115 1.16182 98.4915 2.28175L105.491 23.0004L112.631 2.28175C112.911 1.4418 113.471 0.601853 114.73 0.601853C115.99 0.601853 116.83 1.4418 116.83 2.56173C116.83 2.9817 116.69 3.40168 116.55 3.68166L107.871 27.6202C107.451 28.8801 106.611 29.58 105.491 29.58H105.351C104.371 29.58 103.391 29.0201 102.971 27.6202L95.9716 7.32143L88.9721 27.6202C88.5521 28.8801 87.8522 29.58 86.5923 29.58H86.4523C85.3323 29.72 84.4924 28.8801 84.0724 27.7601ZM146.508 2.84171C146.508 1.72178 147.348 0.601853 148.608 0.601853C149.728 0.601853 150.848 1.4418 150.848 2.84171V7.7414C152.948 2.9817 157.568 0.881835 160.508 0.881835C161.767 0.881835 162.607 1.72178 162.607 3.12169C162.607 4.24162 161.907 5.08157 160.648 5.36155C155.188 5.92152 150.708 10.1213 150.708 18.2407V27.7601C150.708 28.8801 149.868 30 148.608 30C147.488 30 146.368 29.1601 146.368 27.7601V2.84171M176.187 29.86C168.627 29.86 162.467 23.9804 162.467 15.3009V15.1609C162.467 7.04145 168.067 0.601853 175.767 0.601853C184.026 0.601853 188.646 7.32143 188.646 14.881C188.646 16.0009 187.806 16.8408 186.686 16.8408H166.527C167.087 22.8604 171.427 26.3602 176.327 26.3602C179.686 26.3602 182.346 25.1003 184.306 23.1404C184.586 22.8605 185.006 22.7205 185.426 22.7205C186.406 22.7205 187.246 23.5604 187.246 24.5403C187.246 24.9603 187.106 25.5203 186.686 25.8003C184.026 28.1801 180.946 29.86 176.187 29.86ZM184.446 13.621C184.026 8.44136 181.086 4.10163 175.627 4.10163C170.727 4.10163 167.087 8.16138 166.667 13.621H184.446ZM116.69 21.1806C116.69 15.1609 121.59 11.9411 128.73 11.9411C132.369 11.9411 134.889 12.3611 137.409 13.0611V12.0811C137.409 6.90146 134.329 4.52161 129.01 4.52161C126.21 4.52161 124.53 4.80159 122.43 5.78153C122.15 5.92152 121.87 5.92152 121.73 5.92152C120.75 5.92152 119.77 5.08157 119.77 4.10163C119.77 3.12169 120.19 2.70172 120.89 2.28175C123.69 1.16182 125.79 0.601853 129.43 0.601853C133.349 0.601853 136.429 1.58179 138.529 3.68166C140.489 5.64154 141.469 8.44136 141.469 11.9411V27.4802C141.469 28.6001 140.629 29.58 139.369 29.58C138.249 29.58 137.269 28.7401 137.269 27.6202V24.8203C135.309 27.4802 131.949 29.72 127.05 29.72C122.01 29.86 116.69 26.9202 116.69 21.1806ZM137.409 18.9407V16.1409C135.309 15.5809 132.509 15.0209 129.01 15.0209C123.69 15.0209 120.75 17.4008 120.75 20.9006V21.0406C120.75 24.5403 123.97 26.6402 127.75 26.6402C133.209 26.6402 137.409 23.4204 137.409 18.9407ZM7.63724 2.42174C6.79729 0.32187 4.41744 -0.518076 2.31757 0.321871C0.217707 1.16182 -0.62224 3.68166 0.49769 5.64154L9.45712 25.1003C10.857 28.1801 12.3969 29.86 15.1968 29.86C18.1366 29.86 19.3965 28.0401 20.9364 25.1003C20.9364 25.1003 28.7759 8.02139 28.9159 7.88139C29.0559 7.7414 29.1959 7.18144 30.0358 7.18144C30.7358 7.18144 31.1558 7.7414 31.1558 8.44136V24.9603C31.1558 27.4802 32.5557 29.72 35.2155 29.72C38.0153 29.72 39.4152 27.6202 39.4152 24.9603V11.5212C39.4152 8.86133 41.3751 7.18144 43.755 7.18144C46.2748 7.18144 47.9547 9.00132 47.9547 11.5212V25.1003C47.9547 27.6201 49.3546 29.86 52.0144 29.86C54.8143 29.86 56.2142 27.7601 56.2142 25.1003V11.5212C56.2142 8.86133 58.174 7.18144 60.5539 7.18144C63.0737 7.18144 64.7536 9.00132 64.7536 11.5212V25.1003C64.7536 27.6201 66.1535 29.86 68.8134 29.86C71.6132 29.86 73.0131 27.7601 73.0131 25.1003V9.70128C73.0131 3.96164 68.5334 0.0418882 62.9337 0.0418882C57.3341 0.0418882 53.9743 3.82165 53.9743 3.82165C52.0144 1.4418 49.6346 0.0418882 45.2949 0.0418882C40.8151 0.0418882 36.7554 3.82165 36.7554 3.82165C34.9355 1.4418 31.7157 0.0418882 29.3359 0.0418882C25.4161 0.0418882 22.1963 1.86177 20.2364 6.2015L14.4968 19.6407L7.63724 2.42174ZM188.786 4.10163C188.786 2.14176 190.466 0.601853 192.286 0.601853C194.245 0.601853 195.785 2.28175 195.785 4.10163C195.785 6.06151 194.105 7.60141 192.286 7.60141C190.326 7.60141 188.786 6.06151 188.786 4.10163ZM195.085 4.10163C195.085 2.42174 193.965 1.30181 192.286 1.30181C190.606 1.30181 189.486 2.56173 189.486 4.10163C189.486 5.78153 190.606 6.90146 192.286 6.90146C193.965 6.90146 195.085 5.64154 195.085 4.10163Z" fill="#5E5E5E"/>
</svg>
