<svg width="14" height="15" viewBox="0 0 14 15" fill="none" xmlns="http://www.w3.org/2000/svg">
<path d="M12.9605 7.50054C13.6064 6.75833 14 5.79037 14 4.72914C14 2.39333 12.1065 0.499756 9.77077 0.499756C8.70957 0.499756 7.74218 0.893345 7 1.53894C6.25712 0.893345 5.29042 0.499756 4.22922 0.499756C1.8935 0.499756 0 2.39333 0 4.72914C0 5.79037 0.393575 6.75781 1.03915 7.50001C0.393575 8.24221 0 9.20965 0 10.2709C0 12.6067 1.8935 14.5003 4.22922 14.5003C5.29042 14.5003 6.25712 14.1067 7 13.4611C7.74218 14.1067 8.70957 14.5003 9.77077 14.5003C12.1065 14.5003 14 12.6067 14 10.2709C14 9.20965 13.6064 8.24221 12.9608 7.50001L12.9605 7.50054ZM12.8333 4.72914C12.8333 6.4176 11.4592 7.79175 9.77077 7.79175C9.00288 7.79175 8.30865 7.49774 7.7707 7.02837C8.2026 6.3665 8.45827 5.57914 8.45827 4.72914C8.45827 3.87913 8.2054 3.0895 7.7742 2.4271C8.31127 1.95931 9.00463 1.66652 9.77077 1.66652C11.4592 1.66652 12.8333 3.04067 12.8333 4.72914ZM4.22922 1.66652C5.91762 1.66652 7.29172 3.04067 7.29172 4.72914C7.29172 5.49706 6.99773 6.19131 6.5296 6.72981C5.86705 6.29737 5.0792 6.04168 4.22922 6.04168C3.37925 6.04168 2.58965 6.29457 1.92658 6.72631C1.4595 6.18869 1.16672 5.49531 1.16672 4.72914C1.16672 3.04067 2.54082 1.66652 4.22922 1.66652ZM1.16672 10.2709C1.16672 8.58243 2.54082 7.20828 4.22922 7.20828C4.99712 7.20828 5.69135 7.50229 6.22982 7.97113C5.7974 8.63353 5.54172 9.42088 5.54172 10.2709C5.54172 11.1209 5.7946 11.9105 6.22632 12.5729C5.68872 13.0407 4.9959 13.3335 4.22922 13.3335C2.54082 13.3335 1.16672 11.9594 1.16672 10.2709ZM9.77077 13.3335C8.08237 13.3335 6.70827 11.9594 6.70827 10.2709C6.70827 9.50296 7.00227 8.80871 7.4704 8.27022C8.13295 8.70266 8.9208 8.95834 9.77077 8.95834C10.6207 8.95834 11.4103 8.70546 12.0734 8.27372C12.5405 8.81134 12.8333 9.50471 12.8333 10.2709C12.8333 11.9594 11.4592 13.3335 9.77077 13.3335Z" fill="url(#paint0_linear_1_1418)"/>
<defs>
<linearGradient id="paint0_linear_1_1418" x1="7" y1="0.499756" x2="7" y2="14.5003" gradientUnits="userSpaceOnUse">
<stop stop-color="#232ED1"/>
<stop offset="1" stop-color="#4953E8"/>
</linearGradient>
</defs>
</svg>
