<svg width="142" height="30" viewBox="0 0 142 30" fill="none" xmlns="http://www.w3.org/2000/svg">
<path d="M21.6283 7.66887L21.5005 11.7742L10.7935 23.4123C15.266 23.4123 18.1017 23.3687 19.7372 23.2778C19.2634 25.4868 18.8777 27.2922 18.4897 29.9993C16.3391 29.8175 12.9862 29.7724 9.63098 29.7724C5.89151 29.7724 2.6228 29.8175 0 29.9993L0.0872045 25.8474L10.7935 14.2558C6.10657 14.2558 4.38612 14.3001 2.45209 14.3452C2.88072 12.27 3.18224 9.97019 3.48303 7.66887C6.87959 7.80411 8.21279 7.84845 12.6418 7.84845C16.7271 7.84845 19.0476 7.80411 21.6283 7.66887ZM33.7979 6.44948C26.8303 6.44948 21.5005 12.675 21.5005 20.1207C21.5005 25.7137 24.7248 29.9993 31.0021 29.9993C38.011 29.9993 43.3002 23.773 43.3002 16.2837C43.3002 10.7373 40.1601 6.44948 33.7979 6.44948ZM31.6901 24.0154C30.1419 24.0154 29.2395 22.6149 29.2395 19.8635C29.2395 15.7582 30.9164 12.4659 32.9812 12.4659C34.4851 12.4659 35.3882 13.8205 35.3882 16.6155C35.3875 20.6757 33.755 24.0154 31.6901 24.0154ZM132.281 6.14056C125.224 6.14056 119.823 12.4481 119.823 19.9877C119.823 25.6567 123.09 29.9993 129.45 29.9993C136.55 29.9993 141.909 23.6909 141.909 16.1048C141.909 10.4838 138.731 6.14056 132.281 6.14056ZM130.013 23.9917C128.464 23.9917 127.562 22.5913 127.562 19.8399C127.562 15.7346 129.24 12.443 131.304 12.443C132.807 12.443 133.712 13.7961 133.712 16.5919C133.711 20.6535 132.077 23.9917 130.013 23.9917ZM79.4607 14.5706C80.0202 10.7373 79.7194 7.26314 75.4634 7.26314C72.3668 7.26314 69.0131 9.88003 66.6483 14.2558C67.1648 10.6457 66.8626 7.26314 62.6494 7.26314C59.4679 7.26314 56.0277 10.0145 53.6621 14.5706C54.2644 11.5931 54.1358 8.20909 53.9636 7.48781C51.513 7.89427 49.3639 8.11893 46.3531 8.2091C46.4396 10.285 46.3103 12.9899 45.923 15.5631L44.9342 22.3289C44.547 24.9916 44.1169 28.0593 43.6867 29.9993H51.6845C51.7281 28.8249 52.0296 26.9759 52.2439 25.3523L52.932 20.7068C53.4907 17.6827 55.8977 14.1206 57.7467 14.1206C58.822 14.1206 58.7799 15.1574 58.4783 17.0974L57.7038 22.3289C57.3158 24.9916 56.8872 28.0593 56.4564 29.9993H64.5398C64.5834 28.8249 64.8414 26.9759 65.0557 25.3523L65.743 20.7068C66.3024 17.6827 68.7116 14.1206 70.5592 14.1206C71.6352 14.1206 71.5931 15.1116 71.4194 16.4662L69.4883 29.9993H76.866L79.4607 14.5706ZM118.089 22.9164L117.229 28.2404C115.895 28.9617 113.401 30 110.521 30C105.619 30 104.63 27.3831 105.403 21.8345L106.651 12.9019H104.239L104.92 7.11977L107.554 6.99266L108.544 2.79721L115.98 0L115.035 6.99266H120.152C119.981 7.71395 119.377 11.6855 119.208 12.9019H114.217L113.099 21.1576C112.798 23.2778 112.971 24.0449 114.431 24.0449C115.509 24.0442 117.099 23.4123 118.089 22.9164ZM89.8751 25.792C92.5821 25.4565 94.4452 22.847 94.8931 20.2434L94.9685 19.5457C93.8052 19.2856 92.1239 19.0875 90.4937 19.2871C88.941 19.4763 87.6491 20.1214 86.9545 21.0556C86.4305 21.7266 86.1674 22.5292 86.2842 23.4862C86.4608 24.9199 88.046 26.0152 89.8751 25.792ZM87.5708 29.9158C83.7501 30.385 81.2337 28.8686 80.4784 25.4188C80.0047 23.2483 80.6624 20.7755 81.8131 19.3004C83.3539 17.3708 85.8651 16.1322 88.9299 15.7582C91.396 15.4523 93.4742 15.603 95.4178 15.9711L95.4983 15.6378C95.5538 15.1049 95.6099 14.5728 95.5323 13.9358C95.3306 12.3003 94.041 11.3263 90.8565 11.718C88.7082 11.9818 86.664 12.7578 85.0766 13.6409L83.5328 8.97546C85.6841 7.74055 88.3956 6.80051 91.4987 6.41918C97.4265 5.69197 101.592 7.5824 102.125 11.9279C102.266 13.0837 102.283 14.3083 102.138 15.4198C101.377 20.7932 100.889 24.8364 100.675 27.5464C100.64 27.9662 100.643 28.6868 100.681 29.7088L93.3249 29.7022C93.4815 29.2787 93.622 28.7045 93.7468 27.9839C93.8296 27.5102 93.8887 26.9123 93.9257 26.1881C92.3715 28.3217 90.2343 29.5884 87.5708 29.9158Z" fill="#5E5E5E"/>
</svg>
