<svg width="212" height="30" viewBox="0 0 212 30" fill="none" xmlns="http://www.w3.org/2000/svg">
<path d="M0 9.42714C0 9.42714 0 -0.24519 9.53705 0.135277C19.091 0.50729 19.3447 3.52567 27.7488 0C28.3913 1.51342 27.7488 6.66241 22.735 8.049C18.5922 9.18195 15.075 8.67466 15.075 8.67466C14.4409 9.93443 14.0773 11.9382 15.075 13.57C17.0872 12.2003 20.2324 10.9406 23.1155 13.4601L20.41 18.719C18.905 18.1018 16.8336 17.8482 15.8359 18.6006C16.0811 20.9849 16.4531 24.0033 14.9566 26.0155C13.4516 28.0278 11.1773 30.7925 6.0283 29.7864C7.29652 26.8948 7.8799 26.7426 6.40876 19.7336C4.70089 11.5747 8.53938 8.17582 8.53938 8.17582C6.15512 7.03442 0 9.42714 0 9.42714ZM27.3767 8.29419L35.2905 5.40264C37.5564 5.27582 38.4441 9.54551 38.3088 12.4455C38.0637 17.5945 38.2328 21.1202 40.6339 21.8642L32.5257 24.6205C30.8855 23.7412 29.1354 23.2423 29.2537 19.3531C29.3805 15.4639 29.1269 12.1919 29.1269 11.1857C29.1438 10.1796 27.3767 8.29419 27.3767 8.29419ZM54.8972 12.8175C54.8972 12.8175 56.7742 15.7683 57.2815 16.5207L64.1215 12.8852L59.6066 5.65628L53.0625 8.26883C52.5891 6.62859 51.752 5.34345 50.5007 5.41109L42.9675 8.29419C42.9675 8.29419 44.7261 10.1881 44.7261 11.1942C44.7261 12.1919 44.9797 15.4554 44.8529 19.3616C44.7261 23.2592 46.4847 23.7581 48.1249 24.6374L55.8442 21.8811C53.6036 21.1624 53.3077 18.0173 53.4853 13.3671L54.8972 12.8175ZM77.6407 18.4654L87.9387 13.4432L81.53 5.65628C81.53 5.65628 81.4623 5.65628 81.3186 5.66474H81.1664H81.3101C80.118 5.69856 74.1066 6.01139 70.7162 8.04055C66.9623 10.3064 65.5757 12.9444 65.9477 16.5884C66.3197 20.2324 70.4626 24.8741 76.1273 24.8741C79.3824 24.8741 81.4031 25.1278 84.041 23.7496L87.4314 18.3554C83.1617 19.7336 79.7629 20.6129 77.6407 18.4654ZM74.6815 15.4554C73.8022 13.5616 73.9883 11.5662 75.8737 10.8053L78.1396 13.57L74.6815 15.4554ZM201.064 18.6598L211.371 13.6376L204.962 5.85074C204.962 5.85074 204.886 5.85075 204.751 5.8592C204.692 5.8592 204.649 5.8592 204.598 5.86765C204.658 5.8592 204.7 5.8592 204.751 5.8592C203.567 5.89302 197.547 6.20585 194.165 8.24346C190.394 10.5009 189.008 13.1473 189.38 16.7913C189.769 20.4269 193.912 25.077 199.559 25.077C202.823 25.077 204.835 25.3307 207.473 23.9441L210.864 18.5499C206.594 19.9111 203.203 20.7904 201.064 18.6598ZM198.114 15.6414C197.234 13.756 197.429 11.7522 199.306 10.9913L201.572 13.7645L198.114 15.6414ZM111.993 10.9321L109.668 13.1895C109.668 13.1895 105.829 11.1266 104.958 10.484C103.572 9.48632 102.388 10.4248 103.386 11.3126C104.392 12.1919 109.067 14.9481 110.927 16.2079C112.559 17.324 113.684 19.0995 111.181 20.8496C108.662 22.6082 101.636 26.0155 101.636 26.0155L91.8364 20.1056L94.2207 17.7213C94.2207 17.7213 99.6148 20.7397 100.241 21.2301C100.883 21.7289 102.887 20.8496 101.001 19.7251C99.116 18.5837 93.8317 15.5823 92.8341 14.6945C91.8364 13.8152 90.7035 12.0566 94.0938 10.1712C97.4842 8.28574 102.261 5.52946 102.261 5.52946L111.993 10.9321ZM126.188 11.3126H130.779V6.53559H126.188V1.88543L113.252 11.3126H117.328V19.5983C117.328 21.7374 118.207 23.7412 120.473 24.8741L128.699 21.9318C125.943 19.8012 126.188 19.0995 126.188 18.4738V11.3126ZM154.267 9.92597C151.249 7.05133 144.967 5.53792 144.967 5.53792C144.967 5.53792 136.655 7.61781 134.288 11.4478C132.031 15.0919 134.043 18.7275 136.174 21.1202C138.304 23.5044 141.957 24.3837 145.973 25.263C145.973 25.263 149.118 24.6374 153.142 22.1263C156.423 20.0718 156.66 18.1103 156.66 15.5907C156.66 13.0712 157.032 12.5723 154.267 9.92597ZM146.86 19.6068C140.325 16.8336 143.656 10.4417 143.656 10.4417C143.656 10.4417 150.124 13.8321 146.86 19.6068ZM168.209 5.90993L160.304 8.86067L162.493 11.5578V21.8557C162.493 22.6167 162.933 24.1216 165.072 25.1278L172.859 22.6251C171.1 20.9849 170.847 20.1056 170.847 19.0995V12.826L173.62 11.9467C174.744 12.826 175.235 13.4516 175.235 14.703V21.1117C175.235 21.619 175.235 22.7435 176.249 23.7412C177.256 24.7558 178.008 25.3814 178.008 25.3814L185.795 22.363C184.916 21.8642 183.538 21.1117 183.538 18.719C183.538 16.3347 183.791 12.0566 183.538 10.9321C183.292 9.79915 182.151 5.40264 177.129 6.53559C173.941 7.2627 170.475 8.91985 170.475 8.91985C170.475 8.91985 169.722 7.42334 168.209 5.90993Z" fill="#5E5E5E"/>
</svg>
