<svg width="90" height="30" viewBox="0 0 90 30" fill="none" xmlns="http://www.w3.org/2000/svg">
<path fill-rule="evenodd" clip-rule="evenodd" d="M5.18408 11.7684H8.21733C9.20414 11.773 10.221 11.8147 11.2139 11.8911C11.4334 11.9074 11.6503 11.9349 11.8723 11.9889C12.5168 12.1445 13.0932 12.5055 13.5144 13.0174C13.7939 13.3438 13.9869 13.7351 14.0756 14.1555C14.1341 14.4106 14.1815 14.6565 14.1937 14.9132C14.2339 15.7961 14.072 16.6358 13.8755 17.5197C13.8587 17.5935 13.8337 17.6699 13.8169 17.7443C13.7823 17.9245 13.7283 18.0824 13.6932 18.2636C13.6423 18.5213 13.5577 18.7428 13.4931 18.9938C13.4549 19.1389 13.4131 19.2754 13.3724 19.4154C12.7756 21.303 12.2287 23.1381 11.355 24.9193C11.0215 25.6233 10.5403 26.2471 9.944 26.7483C9.50151 27.1185 9.03764 27.395 8.50248 27.5757C8.09614 27.7122 7.58848 27.7876 7.16636 27.7906H0.0295334L5.18408 11.7684ZM4.58119 24.9885C5.32003 24.9885 6.27171 25.1556 6.95454 24.7767C7.27857 24.6019 7.55387 24.349 7.75549 24.0409C7.90469 23.8062 8.03249 23.5893 8.14197 23.3439C8.48109 22.579 8.71532 21.8005 8.98468 21.0087C9.34621 19.9369 9.70722 18.9134 10.0387 17.8242C10.1711 17.3817 10.3152 16.9667 10.3916 16.5044C10.4191 16.3633 10.4338 16.2259 10.4456 16.0858C10.4695 15.9041 10.4349 15.7375 10.3951 15.5588C10.3594 15.4345 10.3074 15.3155 10.2403 15.2049C10.1666 15.0763 10.071 14.9615 9.95775 14.8658C9.90021 14.8134 9.83249 14.7843 9.76935 14.7548C9.20669 14.5012 8.52183 14.6209 7.91742 14.6209L4.58119 24.9885ZM15.2131 21.8809L22.5704 12.1732H16.8537L15.2131 21.8809ZM15.1423 30L26.9087 14.4921H23.1494L11.3865 30H15.1423ZM42.6804 16.4188C42.7064 16.3552 42.7135 16.1958 42.6937 16.1352C42.6641 16.0797 42.6509 16.012 42.602 15.9652C42.5508 15.9216 42.4933 15.886 42.4314 15.8598C42.2367 15.789 42.0233 15.789 41.8285 15.8598C41.548 15.956 41.3545 16.1841 41.2313 16.4428C41.0037 16.9301 40.8214 17.4474 40.6319 17.9525H37.3955C37.4515 17.7117 37.5681 17.369 37.6394 17.1343C37.7382 16.787 37.8472 16.4631 37.9816 16.1357C38.1496 15.7421 38.3391 15.3628 38.6395 15.0445C38.9338 14.7288 39.2602 14.4656 39.6512 14.2782C40.0779 14.072 40.5439 13.9345 41.0062 13.9121H42.3943C43.042 13.9121 43.628 13.9717 44.1036 14.0445C44.5293 14.1086 44.9081 14.2721 45.2284 14.5807C45.5456 14.8897 45.7147 15.2798 45.8043 15.7162C45.9408 16.3633 45.6908 17.0676 45.4942 17.727L42.2435 27.7942H39.5341C39.0209 27.8212 38.5366 27.9592 38.0193 28.0447C37.4213 28.1399 36.8117 28.1338 36.2157 28.0269C36.1068 28.0114 36 27.9841 35.897 27.9454C35.8171 27.9174 35.7388 27.8853 35.6622 27.8492C35.4268 27.7444 35.2146 27.5935 35.0384 27.4055C34.8621 27.2175 34.7252 26.9961 34.6357 26.7544C34.6041 26.6587 34.5812 26.5625 34.5466 26.4662C34.4982 26.3099 34.5013 26.15 34.4982 25.9937C34.4891 25.8403 34.4954 25.6865 34.5171 25.5344C34.5481 25.3017 34.5828 25.0868 34.6388 24.8561C34.8735 23.936 35.1704 23.0979 35.4835 22.2175C35.5838 21.9263 35.704 21.6518 35.8318 21.3702C35.9275 21.1533 36.0334 20.9624 36.174 20.7607C36.5474 20.2471 37.0577 19.8487 37.6466 19.611C38.1654 19.3879 38.7245 19.3065 39.2856 19.3065H41.7578L42.6804 16.4188ZM41.0928 21.3529C40.8013 21.3094 40.5071 21.2861 40.2124 21.2832C39.999 21.2832 39.804 21.3157 39.6202 21.4166C39.2913 21.5931 39.0165 21.8557 38.8253 22.1763C38.6374 22.4925 38.5045 22.8107 38.3844 23.1448C38.2021 23.6492 38.037 24.1597 37.8894 24.6754C37.8268 24.905 37.7637 25.1219 37.7346 25.3526C37.7128 25.5166 37.7071 25.6816 37.7728 25.8379C37.8288 25.9733 37.9363 26.0706 38.0753 26.1261C38.1639 26.1627 38.2698 26.1668 38.3686 26.1739C38.5583 26.1891 38.7493 26.1729 38.9338 26.1261C39.2821 26.0288 39.5153 25.763 39.693 25.4585C39.8264 25.2279 39.9206 24.9911 40.0051 24.7406L41.0928 21.3529ZM35.5981 15.1469C35.4592 14.7161 35.1771 14.3458 34.7987 14.0974C34.6057 13.9645 34.4091 13.8861 34.2003 13.8026C34.1 13.7624 33.9962 13.739 33.8964 13.7099C33.046 13.4874 32.2176 13.6387 31.3983 13.879C30.7664 14.0608 30.1788 14.2716 29.5244 14.3704C28.9598 14.4523 28.3253 14.4361 27.7713 14.4294L23.4717 27.7871H26.7468L30.1793 17.1597C30.2195 17.0324 30.2857 16.9143 30.3356 16.787C30.3758 16.6908 30.4349 16.6032 30.5011 16.5105C30.6727 16.2569 30.9324 16.1464 31.2058 16.0532C31.3209 16.0125 31.4426 16.0115 31.5643 16.0207C31.745 16.0405 31.91 16.1541 32.0251 16.3078C32.0959 16.4015 32.1687 16.5477 32.1417 16.8496L28.6206 27.7901H31.8927L35.4845 16.6475C35.5467 16.4463 35.7468 15.9952 35.674 15.4392C35.6709 15.3954 35.6185 15.2156 35.5981 15.1469ZM63.7324 13.3907C64.9061 13.3749 66.1429 13.549 67.061 14.376C67.1822 14.4854 67.3029 14.5964 67.3772 14.7456C67.4556 14.8892 67.5575 15.015 67.6211 15.1606C67.669 15.2721 67.7087 15.3796 67.7403 15.4957C67.7948 15.6815 67.8258 15.8684 67.8396 16.0614C67.8594 16.3369 67.8187 16.6022 67.7668 16.8771C67.7357 17.0431 67.7357 17.2015 67.6685 17.3583C67.6507 17.3909 67.6685 17.4398 67.6583 17.4775C67.6583 17.4836 67.2525 19.391 66.6369 21.1701C66.0004 23.0287 65.5309 24.3994 65.1622 25.0608C65.049 25.2677 64.9232 25.4673 64.7854 25.6586C64.6729 25.815 64.5578 25.9392 64.4336 26.0853C64.2019 26.3481 63.9763 26.5777 63.6729 26.7783C63.5405 26.8669 63.43 26.9474 63.3011 27.0268C62.823 27.3084 62.3423 27.4714 61.8133 27.6104C61.4732 27.7041 61.134 27.7458 60.7888 27.7733C60.0625 27.8248 59.3329 27.7406 58.6375 27.5248C58.4141 27.4578 58.196 27.374 57.9852 27.2743C57.8209 27.1993 57.6672 27.1031 57.5279 26.9881C57.3966 26.8756 57.2754 26.7783 57.1669 26.6409C57.0901 26.5451 57.0207 26.4436 56.9592 26.3374C56.7066 25.9428 56.6292 25.5227 56.6032 25.0894C56.5824 24.7742 56.6251 24.4778 56.6857 24.1596C56.7962 23.6366 56.9026 23.1728 57.0269 22.657C57.2077 21.9349 57.3808 21.2648 57.5997 20.5616C57.921 19.5361 58.2464 18.5559 58.638 17.561C58.7831 17.201 58.9333 16.8588 59.1003 16.51C59.1889 16.3241 59.2811 16.149 59.3809 15.9697C59.3978 15.9432 59.4138 15.916 59.4287 15.8883C59.4624 15.8328 59.5072 15.7788 59.5341 15.7213C59.6156 15.5441 59.749 15.402 59.8794 15.2457C60.0377 15.0563 60.1936 14.8836 60.3804 14.7212C60.8499 14.3006 61.3581 13.9707 61.9406 13.7497C62.019 13.7201 62.0989 13.7064 62.1723 13.6769C62.4727 13.5602 62.7777 13.5185 63.1 13.4436C63.3078 13.3963 63.5226 13.3948 63.7324 13.3907ZM64.707 15.9983V15.9962C64.6215 15.678 64.3343 15.488 64.0099 15.4254C63.8354 15.3943 63.6562 15.4 63.4839 15.4422C63.3832 15.4727 63.2864 15.5151 63.1957 15.5685C63.0915 15.62 62.9949 15.6857 62.9086 15.7635C62.7854 15.8697 62.6797 15.9946 62.5954 16.1337C62.4849 16.3185 62.3647 16.5008 62.2929 16.7055L59.9955 23.8444C59.9089 24.1229 59.7261 24.7844 59.8274 25.1718C59.8794 25.3597 60.0067 25.4993 60.1793 25.5828C60.4237 25.705 60.6926 25.7162 60.9512 25.6444C61.2654 25.5558 61.546 25.3888 61.7461 25.1006C61.8983 24.8806 62.0154 24.6708 62.1229 24.4325C62.24 24.1621 62.3495 23.8816 62.4503 23.5969L64.651 16.7615C64.707 16.5808 64.7635 16.1602 64.707 15.9983ZM45.013 27.6679H51.3815C53.5736 27.6679 56.0589 25.7793 56.0589 22.4477C56.0589 20.8198 55.4851 20.1054 54.7116 19.7215C56.2193 19.4368 57.9475 17.5238 57.9475 15.2681C57.9475 13.7624 57.0941 11.8932 54.4667 11.8932H49.6304L45.013 27.6679ZM52.1127 14.4834H53.4442C53.9407 14.4834 54.6159 14.8516 54.3883 16.1118C54.068 17.9388 52.3138 18.3991 51.9635 18.3991H50.9533L52.1127 14.4834ZM50.2129 20.9013H51.5434C52.0409 20.9013 52.9136 21.2852 52.683 23.0144C52.5704 23.8378 51.8168 25.0583 50.8509 25.0583H48.9903L50.2129 20.9013ZM74.0237 13.3907C75.1933 13.3749 76.4362 13.549 77.3513 14.376C77.4745 14.4854 77.5931 14.5964 77.6715 14.7456C77.75 14.8892 77.8457 15.015 77.9104 15.1606C77.9562 15.2721 77.9949 15.3796 78.0285 15.4957C78.084 15.6815 78.1161 15.8684 78.1298 16.0614C78.1476 16.3369 78.1089 16.6022 78.0555 16.8771C78.0239 17.0431 78.0285 17.2015 77.9582 17.3583C77.9424 17.3909 77.9582 17.4398 77.9475 17.4775C77.9475 17.4836 77.5407 19.391 76.9251 21.1701C76.2927 23.0287 75.8232 24.3994 75.451 25.0608C75.3395 25.2635 75.2234 25.4555 75.0798 25.6586C74.9652 25.815 74.8481 25.9392 74.7238 26.0853C74.4932 26.3481 74.2656 26.5777 73.9662 26.7783C73.8328 26.8669 73.7217 26.9474 73.5904 27.0268C73.1168 27.3084 72.6336 27.4714 72.1056 27.6104C71.7624 27.7041 71.4263 27.7458 71.079 27.7733C70.3527 27.8245 69.6232 27.7402 68.9277 27.5248C68.7048 27.4584 68.4874 27.3746 68.2775 27.2743C68.1127 27.1996 67.9586 27.1034 67.8192 26.9881C67.6889 26.8756 67.5626 26.7783 67.4562 26.6409C67.3814 26.5438 67.3124 26.4425 67.2494 26.3374C66.9979 25.9428 66.9195 25.5227 66.8945 25.0894C66.8716 24.7742 66.9154 24.4778 66.9801 24.1596C67.0885 23.6366 67.1909 23.1728 67.3212 22.657C67.4994 21.9349 67.6695 21.2648 67.89 20.5616C68.2103 19.5361 68.5356 18.5559 68.9282 17.561C69.0744 17.201 69.2215 16.8588 69.3906 16.51C69.4792 16.3241 69.5713 16.149 69.6711 15.9697C69.6859 15.9489 69.7068 15.9112 69.721 15.8883C69.7536 15.8328 69.7995 15.7788 69.8244 15.7213C69.9079 15.5441 70.0413 15.402 70.1656 15.2457C70.3295 15.0563 70.4828 14.8836 70.6707 14.7212C71.1402 14.3006 71.6504 13.9707 72.2319 13.7497C72.3092 13.7201 72.3917 13.7064 72.4625 13.6769C72.765 13.5602 73.0674 13.5185 73.3882 13.4436C73.597 13.3963 73.8098 13.3948 74.0237 13.3907ZM75.0034 15.9983V15.9962C74.9107 15.678 74.6266 15.488 74.3022 15.4254C74.1276 15.3943 73.9485 15.4 73.7762 15.4422C73.6745 15.4727 73.5767 15.515 73.485 15.5685C73.3836 15.625 73.2803 15.6841 73.1988 15.7635C73.0749 15.8679 72.9703 15.9932 72.8897 16.1337C72.7772 16.3185 72.653 16.5008 72.5842 16.7055L70.2867 23.8444C70.1961 24.1229 70.0164 24.7844 70.1177 25.1718C70.1656 25.3597 70.2979 25.4993 70.468 25.5828C70.7175 25.705 70.9854 25.7162 71.2435 25.6444C71.5526 25.5558 71.8332 25.3888 72.0343 25.1006C72.1876 24.8806 72.3067 24.6708 72.409 24.4325C72.5302 24.1621 72.6428 23.8816 72.74 23.5969L74.9408 16.7615C74.9963 16.5808 75.0579 16.1602 75.0034 15.9983ZM79.5133 27.6679L84.1327 11.8932H80.829L76.2107 27.6679H79.5133ZM85.5121 27.6679L84.5283 20.748L89.4889 14.4142H85.9704L81.3566 20.0479L82.542 27.6679H85.5121ZM9.50457 6.72282C8.11855 6.69074 6.58384 6.64237 6.44484 4.50275C6.42752 4.22677 6.42752 3.80617 6.42752 3.36572C6.42752 2.92578 6.42752 2.50417 6.44484 2.22921C6.58995 -0.005127 8.2158 0.0376453 9.50457 0.00811224H9.50915C10.9395 0.0407005 12.382 0.0468107 12.5236 2.22921C12.5414 2.50468 12.5521 2.92629 12.5521 3.36572C12.5521 3.80668 12.5414 4.22727 12.5236 4.50275C12.3846 6.63881 10.8911 6.69074 9.50915 6.72282H9.50457ZM20.4715 6.60775H22.3128V4.11933H24.4203V6.60622H26.259V0.136941H24.4203V2.51792H22.3128V0.136941H20.4715V6.60775ZM27.7092 6.60927H29.5484V0.141521H27.7092V6.60927ZM0 1.75821L2.01487 1.75719L2.01436 6.59553H3.92994V1.75871L5.8501 1.7577V0.139994H0V1.75821ZM17.4245 2.15487H19.1644V1.7414C19.1507 0.62678 18.5234 0.0351013 16.9719 0.0116785C15.9525 -0.00461562 15.5767 -0.0336421 14.8664 0.164943C14.1876 0.35538 13.6453 0.922623 13.6484 1.87023C13.6524 2.72974 13.8154 3.52917 14.7233 3.83163C15.1434 3.97217 16.0405 4.01596 16.3145 4.03225C16.7305 4.05618 17.4704 4.00527 17.4688 4.65041C17.4673 5.28385 16.9994 5.26959 16.5024 5.27265C16.1424 5.2757 15.3995 5.31338 15.399 4.67078L15.3878 4.43757L13.6458 4.43859V4.81386C13.6458 5.16826 13.6356 6.50693 15.2289 6.65968C16.7188 6.80277 17.7743 6.67496 18.281 6.49063C19.0382 6.21567 19.335 5.53284 19.3309 4.67129C19.3264 3.53987 19.0168 3.16103 18.4139 2.8601C18.059 2.6829 17.4739 2.61874 16.6073 2.59022C15.9601 2.56934 15.4937 2.58208 15.4937 1.99905C15.4927 1.45014 15.985 1.4257 16.0574 1.41552C16.2183 1.39413 16.7336 1.39922 16.8782 1.42061C17.0228 1.442 17.394 1.54842 17.4205 1.97207L17.4245 2.15487ZM34.5486 0.140503C36.2697 0.0844921 36.5431 1.09574 36.4983 1.98938C36.4525 2.9105 35.6729 3.17172 35.4896 3.21653C35.481 3.21869 35.4723 3.22089 35.4637 3.22315C36.1668 3.38813 36.6521 3.96198 36.6287 4.86733C36.6007 5.9957 36.121 6.60723 34.3592 6.60723H31.0072L31.0077 0.140503H34.5486ZM41.3448 5.38925L41.6987 6.63881H43.6204L41.5765 0.140503H38.9577L36.9627 6.6108H38.8712L39.2235 5.38976L41.3448 5.38925ZM9.50915 5.21052C10.5342 5.24566 10.6895 4.71865 10.6956 4.00629C10.6981 3.74405 10.7093 3.54699 10.7088 3.36572C10.7088 3.18445 10.6981 2.98689 10.6956 2.72567C10.6895 2.0128 10.5342 1.48121 9.50915 1.51583H9.50457C8.5035 1.48222 8.27945 1.98785 8.27283 2.72567C8.2708 2.98739 8.25908 3.18445 8.25908 3.36572C8.25908 3.54699 8.2708 3.74456 8.27283 4.00629C8.27945 4.71865 8.47956 5.24566 9.50457 5.21052H9.50915ZM32.852 5.13873H34.0608C34.457 5.13567 34.7269 4.99412 34.7289 4.50377C34.7299 4.09998 34.5466 3.94264 34.1841 3.94416H32.851L32.852 5.13873ZM32.851 2.68443H34.0512C34.4224 2.68443 34.6286 2.53167 34.6296 2.14723C34.6296 1.7857 34.5227 1.5917 33.9682 1.5917H32.851V2.68443ZM39.6151 3.96046L40.2485 1.74344L40.8967 3.96046H39.6151Z" fill="#5E5E5E"/>
</svg>
